<?xml version="1.0" encoding="UTF-8" standalone="no"?>
<!-- Created with Inkscape (http://www.inkscape.org/) -->

<svg
   xmlns:dc="http://purl.org/dc/elements/1.1/"
   xmlns:cc="http://creativecommons.org/ns#"
   xmlns:rdf="http://www.w3.org/1999/02/22-rdf-syntax-ns#"
   xmlns:svg="http://www.w3.org/2000/svg"
   xmlns="http://www.w3.org/2000/svg"
   xmlns:sodipodi="http://sodipodi.sourceforge.net/DTD/sodipodi-0.dtd"
   xmlns:inkscape="http://www.inkscape.org/namespaces/inkscape"
   id="svg2"
   version="1.1"
   inkscape:version="0.48.0 r9654"
   width="743.75"
   height="1052.5"
   xml:space="preserve"
   sodipodi:docname="CBS_3CMYK.svg"
   inkscape:export-filename="/home/sqren/Downloads/CBS_3CMYK.png"
   inkscape:export-xdpi="90"
   inkscape:export-ydpi="90"><metadata
     id="metadata8"><rdf:RDF><cc:Work
         rdf:about=""><dc:format>image/svg+xml</dc:format><dc:type
           rdf:resource="http://purl.org/dc/dcmitype/StillImage" /><dc:title></dc:title></cc:Work></rdf:RDF></metadata><defs
     id="defs6" /><sodipodi:namedview
     pagecolor="#ffffff"
     bordercolor="#666666"
     borderopacity="1"
     objecttolerance="10"
     gridtolerance="10"
     guidetolerance="10"
     inkscape:pageopacity="0"
     inkscape:pageshadow="2"
     inkscape:window-width="838"
     inkscape:window-height="980"
     id="namedview4"
     showgrid="false"
     inkscape:zoom="0.77664175"
     inkscape:cx="471.44975"
     inkscape:cy="542.52765"
     inkscape:window-x="0"
     inkscape:window-y="0"
     inkscape:window-maximized="0"
     inkscape:current-layer="g10" /><g
     id="g10"
     inkscape:groupmode="layer"
     inkscape:label="ink_ext_XXXXXX"
     transform="matrix(1.25,0,0,-1.25,0,1052.5)"><g
   id="g3331"
   transform="matrix(0.79503752,0,0,0.79503752,49.489917,41.36573)"><path
     d="m 174.641,511.807 c 3.123,-2.11 6.313,-4.159 9.595,-6.13 l -0.027,0.403 -5.223,12.19 c -0.993,2.249 -1.944,4.646 -2.936,7.011 l -9.99,0 0,-9.218 c 0.472,0.362 1.03,0.613 1.64,0.7 3.618,0.383 4.086,-3.819 6.941,-4.956"
     style="fill:#214091;fill-opacity:1;fill-rule:nonzero;stroke:none"
     id="path14"
     inkscape:connector-curvature="0" /><path
     d="m 196.873,471.387 -3.985,11.402 -5.095,12.977 -1.109,2.691 -2.587,1.643 -11.67,6.726 c -1.72,1.306 -4.274,1.645 -5.587,3.307 -0.231,0.386 -0.509,0.788 -0.78,1.205 l 0,-57.676 36.551,0 -0.143,0.473 -5.595,17.252"
     style="fill:#214091;fill-opacity:1;fill-rule:nonzero;stroke:none"
     id="path16"
     inkscape:connector-curvature="0" /><path
     d="m 188.262,504.146 c 0.591,-2.505 3.227,-3.062 4.89,-4.553 6.682,-4.601 13.519,-9.513 20.037,-14.456 0,0 0.139,-0.096 0.354,-0.246 l -0.02,0.134 c 0,0 0,5.711 0.205,9.523 -0.261,7.472 -0.847,17.704 -2.167,24.126 -0.754,1.825 -1.631,3.56 -1.345,5.375 0.041,0.397 -0.023,0.812 -0.132,1.232 l -28.883,0 c 0.31,-0.934 0.62,-1.871 0.944,-2.797 2.021,-6.065 3.938,-12.292 6.117,-18.338"
     style="fill:#214091;fill-opacity:1;fill-rule:nonzero;stroke:none"
     id="path18"
     inkscape:connector-curvature="0" /><path
     d="m 216.721,522.717 c 0.908,-2.222 0.23,-4.438 0.401,-6.697 0.296,-6.411 0.556,-12.832 -0.442,-19.238 -0.36,-4.298 -0.71,-8.634 -0.778,-12.94 0,0 0.017,-0.258 0.046,-0.719 0.277,-0.223 0.489,-0.412 0.565,-0.522 l 0.19,0.15 3.322,10.17 4.114,13.723 c 1.238,5.155 3.199,10.373 3.423,15.611 -0.455,0.907 -0.905,1.995 -0.898,3.026 l -9.85,0 c 0.061,-0.857 0.061,-1.714 -0.093,-2.564"
     style="fill:#214091;fill-opacity:1;fill-rule:nonzero;stroke:none"
     id="path20"
     inkscape:connector-curvature="0" /><path
     d="m 213.932,475.146 -0.065,5.858 c -0.266,0.186 -0.518,0.394 -0.704,0.615 -5.966,4.449 -12.494,8.404 -18.812,12.35 -0.462,-0.086 -0.369,-0.673 -0.457,-0.994 1.862,-11.812 6.249,-23.525 9.84,-35.321 0.465,-1.332 0.786,-2.657 1.177,-3.992 l 2.014,0 c 2.039,6.088 4.005,12.009 5.994,18.17 0.343,1.071 0.675,2.17 1.013,3.314"
     style="fill:#214091;fill-opacity:1;fill-rule:nonzero;stroke:none"
     id="path22"
     inkscape:connector-curvature="0" /><path
     d="m 234.017,525.281 c -0.035,-0.118 -0.051,-0.238 -0.095,-0.355 -1.258,-4.879 -2.679,-9.655 -4.838,-14.449 -1.446,-3.254 -2.527,-6.822 -3.603,-10.184 -1.886,-2.838 -3.046,-6.192 -4.329,-9.428 l -3.422,-9.219 c 0.77,-0.75 1.803,-1.318 2.53,-2.166 5.628,-4.324 11.207,-8.835 16.399,-13.654 0.324,-0.401 0.632,-0.832 1.017,-1.167 l 0,60.622 -3.659,0"
     style="fill:#214091;fill-opacity:1;fill-rule:nonzero;stroke:none"
     id="path24"
     inkscape:connector-curvature="0" /><path
     d="m 213.998,469.204 -1.55,-3.936 c -1.317,-3.897 -2.56,-7.739 -3.737,-11.606 l 4.732,0 0.557,15.369 -0.002,0.173"
     style="fill:#214091;fill-opacity:1;fill-rule:nonzero;stroke:none"
     id="path26"
     inkscape:connector-curvature="0" /><path
     d="m 220.85,476.188 c -1.669,1.164 -1.672,1.159 -2.017,1.425 -0.067,0.051 -0.032,0.047 -0.107,0.094 -0.157,0.099 -0.312,0.164 -0.455,0.254 -0.034,0.021 -0.068,-0.045 -0.099,-0.026 -0.134,0.088 -0.309,0.238 -0.503,0.354 -0.071,-0.11 -0.079,-0.488 -0.161,-0.628 -0.246,-0.616 -0.626,-1.125 -0.626,-1.125 -0.242,-0.669 -0.439,-1.148 -0.62,-1.582 0.009,-0.691 0.013,-1.393 0.011,-2.093 -0.016,-4.373 -0.556,-11.821 -0.419,-12.386 0,0 -0.145,-4.265 -0.252,-6.813 l 22.074,0 0,10.806 -0.594,-0.011 c -5.436,3.907 -10.762,7.846 -16.232,11.731"
     style="fill:#214091;fill-opacity:1;fill-rule:nonzero;stroke:none"
     id="path28"
     inkscape:connector-curvature="0" /></g><text
   xml:space="preserve"
   style="font-size:32px;font-style:normal;font-variant:normal;font-weight:bold;font-stretch:normal;line-height:125%;letter-spacing:0px;word-spacing:0px;fill:#000000;fill-opacity:1;stroke:none;font-family:Andale Mono;-inkscape-font-specification:Andale Mono Bold"
   x="276.36951"
   y="-402.06232"
   id="text3341"
   sodipodi:linespacing="125%"
   transform="scale(1,-1)"><tspan
     sodipodi:role="line"
     id="tspan3343"
     x="276.36951"
     y="-402.06232"
     style="font-size:80px;font-style:normal;font-variant:normal;font-weight:bold;font-stretch:normal;letter-spacing:-2.4000001px;font-family:ARIAL;-inkscape-font-specification:ARIAL"
     dx="0">LEARN</tspan></text>

<text
   xml:space="preserve"
   style="font-size:32px;font-style:normal;font-weight:normal;line-height:125%;letter-spacing:0px;word-spacing:0px;fill:#000000;fill-opacity:1;stroke:none;font-family:Sans"
   x="400.34848"
   y="270.54742"
   id="text2993"
   sodipodi:linespacing="125%"
   transform="matrix(0,1,1,0,0,0)"><tspan
     sodipodi:role="line"
     id="tspan2995"
     x="400.34848"
     y="270.54742"
     style="font-size:28.79999924px;font-style:normal;font-variant:normal;font-weight:normal;font-stretch:normal;font-family:Arial;-inkscape-font-specification:Arial">CBS</tspan></text>
</g></svg>